<?xml version="1.0" encoding="UTF-8" standalone="no"?><!-- Generator: Gravit.io -->
<svg xmlns="http://www.w3.org/2000/svg"
     style="isolation:isolate" viewBox="0 0 200 200" width="200pt" height="200pt"><defs><clipPath id="_clipPath_pDZ0b3mSWBVsNTipAGnF8ATDNJxve0Li"><rect width="200" height="200"/></clipPath></defs><g clip-path="url(#_clipPath_pDZ0b3mSWBVsNTipAGnF8ATDNJxve0Li)"><g><g><path d=" M 170.656 88.992 L 126.272 115.686 L 115.686 109.735 L 159.992 82.938 L 170.656 88.992 Z " fill="rgb(19,19,19)"/><path d=" M 73.031 114.86 L 73.031 166.597 L 84.039 159.992 L 84.039 109.357 L 73.031 114.86 Z " fill="rgb(230,230,230)"/><path d=" M 117.062 27.899 L 117.062 45.512 L 78.535 67.527 L 71.93 63.915 L 71.93 49.915 L 114.86 26.798 L 117.062 27.899 Z " fill="rgb(230,230,230)"/><path d=" M 37.806 84.039 L 29 89.543 L 73.031 114.86 L 83.66 109.735 L 40.008 82.938 L 37.806 84.039 Z " fill="rgb(19,19,19)"/><path d=" M 115.892 109.804 L 126.281 115.686 L 126.281 166.597 L 114.86 159.992 L 115.892 109.804 Z " fill="rgb(159,159,159)"/><path d=" M 144.581 43.964 L 144.031 60.922 L 104.953 82.938 L 98.349 79.326 L 98.349 65.326 L 141.279 42.209 L 144.581 43.964 Z " fill="rgb(230,230,230)"/><path d=" M 29 58.721 L 99.45 99.45 L 169.899 58.721 L 153.388 48.814 L 100.55 79.636 L 46.612 48.814 L 29 58.721 Z " fill="rgb(19,19,19)"/><path d=" M 169.899 58.721 L 99.45 99.45 L 99.45 182.008 L 117.062 172.101 L 117.062 110.457 L 169.899 79.636 L 169.899 58.721 Z " fill="rgb(230,230,230)"/><path d=" M 55.419 43.31 L 55.419 53.871 L 73.031 63.915 L 73.031 53.217 L 55.419 43.31 Z " fill="rgb(159,159,159)"/><path d=" M 82.938 59.375 L 82.938 69.617 L 100.55 79.636 L 100.55 69.281 L 82.938 59.375 Z " fill="rgb(159,159,159)"/><path d=" M 29 58.721 L 29 79.636 L 81.837 110.457 L 81.837 172.101 L 99.45 182.008 L 99.45 99.45 L 29 58.721 Z " fill="rgb(159,159,159)"/><path d=" M 55.419 43.31 L 99.45 17.992 L 117.062 27.899 L 73.031 53.217 L 55.419 43.31 Z " fill="rgb(16,16,16)"/><path d=" M 82.938 59.375 L 126.969 34.057 L 144.581 43.964 L 100.55 69.281 L 82.938 59.375 Z " fill="rgb(16,16,16)"/><path d=" M 29 89.543 L 29 141.279 L 73.031 166.597 L 73.031 114.86 L 29 89.543 Z " fill="rgb(159,159,159)"/><path d=" M 126.281 115.686 L 170.656 88.992 L 171 140.385 L 126.143 166.597 L 126.281 115.686 Z " fill="rgb(230,230,230)"/></g></g></g></svg>
